<?xml version="1.0" encoding="UTF-8"?>
<svg id="Layer_1" xmlns="http://www.w3.org/2000/svg" version="1.1" viewBox="0 0 612 792">
  <!-- Generator: Adobe Illustrator 29.0.1, SVG Export Plug-In . SVG Version: 2.1.0 Build 192)  -->
  <defs>
    <style>
      .st0 {
        fill: #e3e3ec;
      }

      .st1 {
        fill: #54caf2;
      }

      .st2 {
        fill: #949799;
      }

      .st3 {
        fill: #fff;
      }

      .st4 {
        fill: #0d0b5f;
      }

      .st5 {
        fill: #6dcff6;
      }

      .st6 {
        fill: #181770;
      }

      .st7 {
        fill: #fbfbf9;
      }

      .st8 {
        fill: #f8fcff;
      }

      .st9 {
        fill: #53c0a6;
      }

      .st10 {
        fill: #e9e9ee;
      }

      .st11 {
        fill: #3a58a8;
      }

      .st12 {
        fill: #47aee3;
      }

      .st13 {
        fill: #4b92ce;
      }

      .st14 {
        fill: #f6f6f7;
      }

      .st15 {
        fill: #f6f7f7;
      }

      .st16 {
        fill: #1a1972;
      }
    </style>
  </defs>
  <g>
    <path class="st6" d="M247.8,394.7c0,0-.2,1.1-.5,1.7-5.2,8.5-15.6,10.9-23,4.4-1.8-1.6-3.9-5.7-4.8-6.3-1.5-1.1-6.5-2.2-8.8-3.4-3-1.6-5.3-3.1-6-7-.4-2.3,1.1-10.2,1.9-12.7s5.8-5.2,7.6-6.3c10-6,16.2-6.2,27-7.6,12.6-1.7,20.3-8.8,31.4-13.9,25.7-12,54.2-13.6,79.8-.2,8.9,4.7,18.6,10.5,19.5,22.6.2,2.2-.4,5.8,0,7.6s2.3.4,2.7,3.2c1,6.7-4.2,14.9-9.8,17.1s-5.1.9-5.7,1.3-1.2,2.3-1.8,3c-7,8.6-17.8,8.8-24.7,0s-1.3-3-2.5-3.3h-34.6v10.5c0,3.3-4.9,6.5-7.6,6.8-9.2,1.2-20.4-.9-29.7,0-6.4.7-7.3,10.6-1.3,13.2h78.7c1.5,0,1.1-2,1.6-3.2,1.3-2.9,3.9-5.8,6.8-6.7s4.9-.2,6.2-.6.2-1.5.7-1.8,6.4-.4,6.9,0c.9.7.1,4.6.4,4.9.6.7,9.5-1.8,9.2,3.8s-1.6,3.4-2.1,3.4h-7.1v3.6h6.6c.7,0,2.3,2,2.4,2.9,1,6.2-8.5,3.5-9.1,4.2s.5,4.1-.4,4.9-6.4.4-6.9,0-.2-1.7-.7-1.8c-.9-.3-3.2.2-4.5,0-2.9-.4-6.2-2.9-7.8-5.6s-.8-4.8-2.3-5.1l-78.5-.2c-9.3-2.9-8.2-17.2,1.6-18.2,9.1-.9,21.1,1.5,29.7,0,2-.3,5.3-3.6,5.3-5.8v-8.9h-45.8Z"/>
    <path class="st9" d="M366.4,357h-6.6c-1.6,0-.2,4,.5,5.1,2.2,3.4,8.9,4,9.3,4.7s-.3,6,.2,7.7c.5,1.7,2.6,1.8,2.7,2.2,1.7,6.5-6.1,16.6-12.4,15.5,3-12.2-5.2-24-16.7-22.9-9.6.9-16.7,12.6-13.6,22.9h-80.6c4.8-29.9-34.7-30.4-30.7-.5-.3.4-7.8-2.9-8.6-3.5-5.9-3.9-2.3-10.1-1.5-15.9,4.4-.9,7.8.5,11.4-2.9,1.9-1.7,2.6-4,4.1-5.6,3.7-4.1,14.4-3.6,19.4-4.4,12.2-1.8,22.5-10.8,34-15.6,27.1-11.3,60.6-10.9,84.7,8.4,1.5,1.2,3.8,2.7,4.2,4.7Z"/>
    <path class="st8" d="M231.2,371.9c17.8-3.4,22.6,25.2,6.2,29.8-18.5,5.2-23.6-26.5-6.2-29.8Z"/>
    <path class="st3" d="M342.5,371.9c17.7-2.9,21.9,24.9,6.1,29.7-18.5,5.7-24.2-26.8-6.1-29.7Z"/>
    <path class="st1" d="M350.4,417.2v18.9c-16,2.5-15.8-21.3,0-18.9Z"/>
    <rect class="st7" x="352.7" y="415.1" width="3.2" height="23.5"/>
    <path class="st4" d="M329.3,392.7v.5h-79.7l.5,1h-1.4c.4-.4.4-1.5.5-1.5h80.1Z"/>
    <path class="st15" d="M368,359.6c.4.2,1.8,3.8,1.4,4.6-2.7-1-6.8-1.3-8-4.6,1.7.4,5.2-.5,6.6,0Z"/>
    <path class="st10" d="M220.5,364.3c-1.6,3.7-5,5.5-8.7,5.1.5-1.5,8.2-5.5,8.7-5.1Z"/>
    <path class="st0" d="M365,422.3c-.2.4-8.6,1.8-6.9-2,1.2,0,8.5-.8,6.9,2Z"/>
    <path class="st14" d="M365.4,430.9c1.3,2.8-6.6,2.4-6.9,2s0-2,0-2h6.9Z"/>
    <path class="st16" d="M308.7,339.7v15.3c6.2-1,12.8-1.4,19-1s12,1.1,13,1.8.6,2-.3,2.3-8.6-1.4-10.4-1.5c-16.5-1-31.4,3.1-47.6,4.1-3.7.2-12.3,1-15.6.5-1.7-.2-3.9-1.5-1.4-2.6,10,0,20.3-.3,30.2-1.5,1.5-.2,9.7-1.3,10.3-1.8,1.1-.8,0-11.9.5-14.3.3-1.6,1-1.8,2.3-1.3Z"/>
    <path class="st5" d="M293.2,281.4c14.1-.4,28.8,4.3,38.6,12.5s2.7,2.3,3,2.9c.8,1.5.1,2-1.1,3.1s-4.1,3.2-6.3,1.7-3-2.8-4.6-3.9c-15.7-11.2-37.9-11.1-54.2-.8-1.7,1.1-3.5,3.4-5.8,2.6s-3.1-2.3-3.5-2.7c-2-2.1-.5-3.1,1.6-4.7,8.4-6.4,21-10.3,32.4-10.6Z"/>
    <path class="st12" d="M293.5,296.5c8.5-.5,16.7,1.6,23.3,5.8,1.9,1.2,6,3.7,4.8,6s-3.6,2.6-4,2.7c-2.6.7-3.8-1.4-5.5-2.5-10.2-7-23.5-6-33.3.8-.9.6-1,1.5-2.8,1.6s-5-2.9-5.1-3.9c-.2-1.5,1.8-2.9,3.2-3.8,5.2-3.7,12.4-6.2,19.3-6.6Z"/>
    <path class="st13" d="M293.7,310c2.6-.2,5.4,0,7.8.6s9.4,3.6,7.8,6.3-2.9,2.1-3.2,2.3c-2.2,1-2.8-.5-4.2-1.2-3.3-1.9-7.6-2-11.1-.3s-3.3,3.4-5.9,2.6-3.5-2.9-3.4-3.7c.4-2.9,8.9-6.2,12.2-6.5Z"/>
    <path class="st11" d="M295.1,321.9c9.8-1.1,10.7,11,1.2,11.2s-9.5-10.2-1.2-11.2Z"/>
  </g>
  <path class="st9" d="M308.1,238.7c1.2-.7,2.3-.9,3.5,0,2.1.5,5.1,3.7,5.1,6.2v7.2c0,.8-1.6.8-1.6,0v-6.9c0-2-2.6-4.6-4.3-4.9s-4.1.1-4.3,2,.5,8.7-.2,10.4-.5.6-.8.9h-1.9c0-.7-.6-1-.7-1.7-.3-1.9-.1-6.9.6-8.6s.9-1.4,1-1.8c.2-.8-.8-2.4-1.2-3-3.1-4-8.6-3.8-11.4.6s-.5,2.3.2,4.5.6,8.1.2,9.2-.5.6-.8.9h-1.6c-.1-.4-.9-1.2-.9-1.5v-9.5c0-.2.4-.2,0-.8-.9-1.6-3.7-1.6-5.2-1s-3.5,3.1-3.5,5v6.4c0,.5-1.4.8-1.6-.5s0-5.8.3-7.3c.7-3.1,2.3-4.2,4.6-5.5,1.4-.8,2.5-.9,4,0,.6.4,1.4.6,2,1.1,3.4-8.1,12.9-8.1,16.5-.1.1,0,1.8-.8,2.1-.9Z"/>
  <path class="st12" d="M296.3,221.8c8.2-1.9,8.5,12.6.4,11.3s-5.4-10.2-.4-11.3Z"/>
  <path class="st12" d="M287.1,237.6c-1.2.6-2.1.6-3.3-.3-5.2-4.1-.3-10.8,3.8-7.9,3.1,2.2,2.3,6.1-.5,8.2Z"/>
  <path class="st12" d="M311.6,237.4c-1.1,1-2,1-3.3.3-6.6-4.7,1.4-12.5,4.8-6.9s.6,5.1-1.5,6.6Z"/>
  <path class="st9" d="M287.1,237.6c-.2.2-.4.3-.7.3v.3c.6-.2.9.4,1.2.5-1.4-.4-2.6-.3-4,0,.4-.2.7-.5,1.2-.5v-.3c-.6.2-.7-.4-.9-.5,1.1.4,2.2.4,3.3.3Z"/>
  <path class="st9" d="M311.6,237.4c-.2.2-.3.7-.9.5l.9.8c-1.2-.3-2.3-.3-3.5,0,.3-.2.7-.4.9-.7-.2-.2-.4-.2-.7-.4,1.2.2,2.1.2,3.3-.3Z"/>
  <path class="st9" d="M290.3,244.5c.3-.4.7.6.7.9v6.1c0,.4-.7.4-.7,0,0-1-.2-6.8,0-7Z"/>
  <path class="st9" d="M305,252h-.5v-7.3s.3-.4.5-.4v7.7Z"/>
  <polygon class="st12" points="433.8 348.2 433.8 352.1 400.6 352.1 400.6 348.2 417.2 343.2 433.8 348.2"/>
  <path class="st12" d="M433.8,368v1.9h1.3s0,0,0,0v2.1h1.5s0,0,0,0v1.4h-39v-1.4s0,0,0,0h1.5v-2.1s0,0,0,0h1.3v-1.9h33.3Z"/>
  <path class="st9" d="M408.4,352.8c0,.1,0,.3,0,.4s0,0-.1.1c0,0-.4.5-.4.6v.7s.2,0,.3,0,0,.4,0,.4-.2.2-.2.2v10.5c.3,0,.6,0,.6.4s0,.2,0,.2c0,0,.2.3.2.4s0,.6,0,.6h-6.3c0-.4,0-.8.3-1,0,0,0,0,0-.1-.1-.5.2-.6.5-.5v-10.5c0-.1-.2,0-.2-.3s0-.4.2-.3v-.8s-.4-.5-.4-.6c0-.1,0-.3,0-.5h5.8Z"/>
  <path class="st9" d="M416.2,352.8c0,.2,0,.3,0,.5s-.4.5-.4.6v.8s.2,0,.3,0,0,.4,0,.4c0,0-.2.1-.2.1v10.5s.6-.2.5.4,0,.2,0,.2c0,0,.3.3.3.4s0,.5,0,.6h-6.3c0,0,0-.5,0-.6s.3-.3.3-.4,0-.1,0-.2c0-.5.3-.5.6-.4v-10.5c0,0-.3-.2-.3-.2s0-.4,0-.4.2,0,.3,0v-.7c0,0-.4-.5-.5-.6s0-.3,0-.5h5.8Z"/>
  <path class="st9" d="M424,352.8c0,.4-.1.7-.4,1s-.1,0-.1,0v.8c.3,0,.3,0,.3.3s-.3.2-.3.3v10.5c.2,0,.6,0,.6.4s0,.2,0,.3.2.2.2.3v.6h-6.3c0,0,0-.5,0-.6,0-.1.2-.3.2-.4s0-.2,0-.2c0-.4.3-.4.6-.4v-10.5s-.2-.1-.3-.4c0-.4.2-.2.3-.2s0-.6,0-.7c0-.2-.5-.6-.5-.7,0-.1,0-.3,0-.5h5.8Z"/>
  <path class="st9" d="M431.9,352.8c0,.2,0,.4,0,.5s-.4.5-.4.6v.8c.2,0,.2,0,.2.3s-.2.3-.2.3v10.5s.3,0,.5.1,0,.4,0,.5.2.3.2.3v.7h-6.3v-.7s.1,0,.1-.1c.2-.3,0-.2,0-.4,0-.4.3-.4.6-.4v-10.4c0-.3-.3-.1-.3-.5s.2-.2.3-.2,0-.6,0-.6c0-.2-.1-.2-.2-.3-.2-.3-.3-.4-.3-.9h5.8Z"/>
  <path class="st13" d="M304.8,492c-1.4.3-2.8.6-4.3.8-6.3.8-14.1.1-19.8-2.9s-1-.4-1-.8v-9.1s-4.6-1.4-4.6-1.4c-.7-.3-.5-1,0-1.2,6.3-1.8,12.6-3.8,19-5.6s1.2-.4,1.6-.3l20.1,5.9c.6.2.6.9,0,1.2l-4.6,1.4v9c0,.4-.5.6-.8.8-1.3.7-2.8,1.3-4.3,1.8v3.8c1.5.3,2.9,1.6,2.4,3.3-.8,2.5-5.3,2.6-6.3.2s.7-3.2,2.3-3.5v-3.3Z"/>
  <path class="st9" d="M304.8,482v8.7h0c-4.5,1.2-9.2,1.5-13.8.9s-6.7-1.3-9.7-2.9v-8.2l14,4.1h.3c3-.7,6-1.8,9-2.6s.1,0,.2,0Z"/>
  <path class="st9" d="M313.2,478.1h0s-7.6,2.3-7.6,2.3l-9.7-2.9c-.8-.3-1.7.6-.7,1.2,2.7.8,5.4,1.6,8.1,2.4,0,0,0,0,0,0-2.5.8-5.1,1.5-7.6,2.2l-17.7-5.2,17.7-5.2,17.7,5.2Z"/>
  <path class="st9" d="M309.8,480.5v8.2c-1.1.6-2.2,1.1-3.4,1.5v-8.7l3.4-1Z"/>
  <path class="st9" d="M161.6,360.1l.8-10.2h3.8l1.5,17.6,8.6-7.8v7.7l8.5-8.6v14.9h-32.5v-14.9l1,.8c1.4,1.5,2.7,3,4.2,4.5.2.6.6,1.3,1.3,1.4.5.5,1.2,1.3,1.7,1.7s.1.3.5.2c0-2.1.3-4.2.5-6.2,0-.5,1-.6,1-.2l-.8,1c.3.2.4.2.2,0h0c.9-1.1.9-1.5,0-1.2v-.6Z"/>
  <path class="st12" d="M176.6,348.3c.3.2,2.1.9,2.1,1.1-.2.7-1.6,2.2-1.2,2.8s.7.6.9.6c.5,0,2.7-1.3,3.1-1.1l2.2,3.4c-.5.5-2.6,1.3-2.6,1.9-.1,1.4,1.2.9,2.2,1.1s.3,0,.2.2l-6.3,6.6c-.1-1.3.8-2.4,1-3.8.3-2.2-.7-4.6-2.3-6.2s-5.3-3-8.5-2.8c-.4-.2-.2-3.2-.3-3.3s-.9,0-1.2,0c.2-.4,0-2.2.4-2.3h4.5c.3.2.2,2.9.4,3s1.3.3,1.4.3c.2,0,1.6-2.2,2-2.4.5.2.9.5,1.4.7,0,.2,0,.4-.3.7.1.4.1.6,0,.8h-.2c.6.7,0,1.3-.5,1.7q-.5.1,0,0c.5-.4.9-.8.7-1.4v-.2c.1,0,.4-.1.4-.1-.7-.4-.5-1.5.4-1.3Z"/>
  <path class="st12" d="M163.8,348.8h-2.2s-.5,6.3-.5,6.3c-1.8,2.2-2.6,4.6-1.8,7.3s1.2,1.9.8,2.7l-6.4-6.7c-.1-.4,1.1-.2,1.4-.2.8,0,1.3-.6,1.1-1.3s-2.3-1.3-2.6-1.5v-.2s2.2-3.3,2.2-3.3c.4-.2,2.7,1.1,3.2,1.1s.8-.6.8-.7c.3-.7-1.6-2.6-1.1-2.9,1-.7,2.9-1.2,3.9-1.9l1.2,1.4Z"/>
  <path class="st9" d="M165.3,348.1c-2-.5-2.7-2.3-1.7-3.9s2-1.8,2.8-3.4.6-2.2.8-2.2c1.2,1.5.9,3.5-.2,4.9s-2.6,1.6-2.2,3.5.5.7.5,1.1Z"/>
  <path class="st9" d="M158.8,365.3c-.3.2,0,.4-.4.1s-.7-.6-1-1l-.6.5c.7.6,1.5,1.1,1,2.1-.7-.4-1.7.2-2.2-.5-.8-1.1,1.3-1.8,1.8-2.6.4.5.9,1,1.3,1.4Z"/>
  <path class="st9" d="M176.6,348.3c-1.6.7.3,1.3.3,1.6,0,.5-.9-.2-1-.2-.2.2-.3,0-.2-.1-.3-.6-.3-1.1.3-1.6.2,0,.3.2.5.3Z"/>
  <path class="st9" d="M161.6,360.1c-.1.8.2.2.7.3,1.1.4-.1,1-.5,1.5,0,.1-.1.1-.2,0,0-.6.3-.7.7-1.1l-.8.3c0-.4.1-.8.2-1Z"/>
  <path class="st9" d="M153.5,370.4c-.5-.2-.9-.6-.8-1.1l.7.4c.7-.8.7-1.7-.7-1.3v-.4c.7,0,1.5,0,1.6.7s-1,1-.8,1.7Z"/>
  <path class="st9" d="M156.3,367.6c-.2.2-1.1-1-1.8-.6s.2,1.1.5,1.4,0,.4,0,.4-1-.8-1-.8c-.8-1.5,2-1.9,2.4-.3Z"/>
  <path class="st9" d="M161.8,361.9c.9.1.6-.7,1.2-.9.3.3-.1.9-.4,1.1-.5.2-1,.2-1-.2h.2Z"/>
  <path class="st9" d="M175.7,349.6c0,0,.1.1.2.1.4.7,0,1.4-.8,1.6-.2-.1,1.1-.9.3-1.4s-1.1.6-1.8.4c.7-.7,1.1-1,2.2-.6Z"/>
  <path class="st9" d="M175.1,351.3c.1.1.3.7,0,.6s-1.6-1.3-1.4-1.4c.4,0,1.3.6,1.5.8Z"/>
  <path class="st9" d="M157.5,366.2c-1.4,1-2.2-.3-.8-1l.8,1Z"/>
  <g>
    <path class="st2" d="M274.8,239.1c0-.3,0-.6,0-.9,0-.2,0-.4,0-.6-53.3,7.6-96.2,46.8-108.2,97.3,3.1-.2,6.2-.2,9.3,0,11.7-45.7,50.7-80.9,99-88.3,0-1.2-.2-2.4-.2-3.5,0-1.3.2-2.7.1-4Z"/>
    <path class="st2" d="M319.3,238.7c0,3.1.2,6.2.2,9.2,45.6,9.6,81.8,44.2,92.5,88.3.5,0,1.1,0,1.6.1,1.4,0,2.9,0,4.3,0,0,0,.1,0,.2,0,.2,0,.4,0,.6,0s.2,0,.3,0c.4,0,.8,0,1.3,0,.3,0,.7,0,1,0-11.1-49.1-51.3-87.6-102-97.5Z"/>
    <path class="st2" d="M274.9,481.2c0-.1,0-.3,0-.4-52.8-8.1-94.4-49.3-101.6-101.1-3.1.3-6.3.2-9.1.1,7.4,56.7,53,101.9,110.7,110.1-.1-2.8-.4-5.9,0-8.7Z"/>
    <path class="st2" d="M416.1,380.2c-.6,0-1.1,0-1.7,0,0,0-.2,0-.3,0-7.1,49.4-45.5,89.1-95,99.4,0,1,0,1.9,0,2.9,0,.8,0,1.6,0,2.4,0,1.3.1,2.6.3,3.8,54.4-10.6,96.7-54.3,103.9-108.6-2.4.1-4.8.1-7.1,0Z"/>
  </g>
  <g>
    <path class="st3" d="M168.6,382.1c.5,3,1,6,1.7,9l1-.2c-.7-2.9-1.3-5.9-1.7-8.9l-1,.2Z"/>
    <path class="st3" d="M200.8,446.1l-.7.7c2.1,2.2,4.2,4.4,6.5,6.5l.7-.7c-2.2-2-4.4-4.2-6.4-6.4Z"/>
    <path class="st3" d="M172.7,399.9c.9,2.9,1.9,5.8,3.1,8.6l.9-.4c-1.1-2.8-2.1-5.7-3-8.5l-1,.3Z"/>
    <path class="st3" d="M213.5,459.2c2.4,1.9,4.8,3.7,7.3,5.5l.6-.8c-2.5-1.7-4.9-3.5-7.3-5.4l-.6.8Z"/>
    <path class="st3" d="M179.5,416.8c1.3,2.7,2.8,5.4,4.3,8l.9-.5c-1.5-2.6-3-5.3-4.3-8l-.9.4Z"/>
    <path class="st3" d="M188.7,432.6c1.7,2.5,3.6,5,5.5,7.3l.8-.6c-1.9-2.3-3.7-4.8-5.4-7.3l-.8.6Z"/>
    <path class="st3" d="M274.8,241.6c-1.3.2-2.6.4-3.9.6l.2,1c1.2-.2,2.5-.4,3.7-.6,0-.3,0-.7,0-1Z"/>
    <path class="st3" d="M262.2,483.4c2.9.7,5.9,1.4,8.9,1.9l.2-1c-3-.5-5.9-1.2-8.9-1.9l-.2,1Z"/>
    <path class="st3" d="M244.9,477.7c2.8,1.1,5.7,2.2,8.6,3.2l.3-1c-2.9-.9-5.7-2-8.5-3.1l-.4.9Z"/>
    <path class="st3" d="M253.1,246.7l.3.9c2.9-.9,5.8-1.8,8.7-2.5l-.2-1c-2.9.7-5.9,1.6-8.8,2.6Z"/>
    <path class="st3" d="M228.5,469.6c2.6,1.5,5.3,3,8,4.3l.4-.9c-2.7-1.3-5.4-2.8-8-4.3l-.5.9Z"/>
    <path class="st3" d="M213.9,269.2l-.6-.8c-2.4,1.9-4.7,3.9-6.9,6l.7.7c2.2-2,4.5-4,6.8-5.9Z"/>
    <path class="st3" d="M200.6,281.6l-.7-.7c-2.1,2.2-4.1,4.6-6,6.9l.8.6c1.9-2.3,3.9-4.7,5.9-6.9Z"/>
    <path class="st3" d="M228.8,258.9l-.5-.9c-2.6,1.5-5.2,3.2-7.7,4.9l.6.8c2.5-1.7,5-3.4,7.6-4.9Z"/>
    <path class="st3" d="M244.9,250.8l-.4-.9c-2.8,1.2-5.6,2.4-8.3,3.8l.4.9c2.7-1.3,5.5-2.6,8.2-3.7Z"/>
    <path class="st3" d="M189.3,295.7l-.8-.6c-1.7,2.5-3.4,5.1-4.9,7.7l.9.5c1.5-2.6,3.1-5.2,4.8-7.7Z"/>
    <path class="st3" d="M180.2,311.4l-.9-.4c-1.3,2.7-2.6,5.5-3.7,8.4l.9.4c1.1-2.8,2.3-5.6,3.6-8.3Z"/>
    <path class="st3" d="M171.7,334.8c.6-2.2,1.2-4.5,1.8-6.6l-1-.3c-.7,2.3-1.3,4.6-1.9,6.9.3,0,.7,0,1,0Z"/>
    <path class="st3" d="M403,424.2l.9.5c1.5-2.6,3-5.3,4.3-8.1l-.9-.4c-1.3,2.7-2.8,5.4-4.3,8Z"/>
    <path class="st3" d="M398.8,294.8l-.8.6c1.7,2.5,3.3,5,4.9,7.6l.9-.5c-1.5-2.6-3.2-5.2-4.9-7.7Z"/>
    <path class="st3" d="M408,310.5l-.9.4c1.3,2.7,2.6,5.5,3.7,8.3l.9-.4c-1.1-2.8-2.4-5.6-3.7-8.3Z"/>
    <path class="st3" d="M392.7,439.2l.8.6c1.9-2.4,3.7-4.8,5.4-7.3l-.8-.6c-1.7,2.5-3.5,4.9-5.4,7.3Z"/>
    <path class="st3" d="M380.4,452.4l.7.7c2.2-2.1,4.4-4.2,6.5-6.5l-.7-.7c-2,2.2-4.2,4.4-6.4,6.4Z"/>
    <path class="st3" d="M387.3,280.6l-.7.7c2.1,2.2,4.1,4.5,5.9,6.8l.8-.6c-1.9-2.4-3.9-4.7-6-6.9Z"/>
    <path class="st3" d="M410.9,408l.9.4c1.1-2.8,2.1-5.7,3-8.6l-1-.3c-.9,2.9-1.9,5.7-3,8.5Z"/>
    <path class="st3" d="M416.3,390.7l1,.2c.7-3,1.3-6,1.7-9h-1c-.5,2.8-1,5.8-1.7,8.7Z"/>
    <path class="st3" d="M417.1,336.3h.1c-.7-3-1.5-5.9-2.4-8.8l-1,.3c.9,2.8,1.7,5.7,2.3,8.6.3,0,.6,0,.9,0Z"/>
    <path class="st3" d="M358.9,257.8l-.5.9c2.6,1.5,5.2,3.2,7.6,4.9l.6-.8c-2.5-1.7-5.1-3.4-7.7-4.9Z"/>
    <path class="st3" d="M334,479.8l.3,1c2.9-.9,5.8-2,8.6-3.2l-.4-.9c-2.8,1.1-5.6,2.2-8.5,3.1Z"/>
    <path class="st3" d="M324.9,245c2.9.7,5.9,1.6,8.7,2.5l.3-1c-2.9-.9-5.8-1.8-8.8-2.5l-.2,1Z"/>
    <path class="st3" d="M373.9,268.2l-.6.8c2.4,1.9,4.7,3.9,6.9,5.9l.7-.7c-2.2-2.1-4.5-4.1-6.9-6Z"/>
    <path class="st3" d="M319,484.7c2.2-.4,4.3-.9,6.5-1.4l-.2-1c-2,.5-4.1,1-6.2,1.4,0,.3,0,.7,0,1Z"/>
    <path class="st3" d="M366.3,463.8l.6.8c2.5-1.7,5-3.6,7.3-5.5l-.6-.8c-2.3,1.9-4.8,3.7-7.3,5.4Z"/>
    <path class="st3" d="M350.7,472.9l.4.9c2.7-1.3,5.4-2.8,8-4.4l-.5-.9c-2.6,1.5-5.3,3-8,4.3Z"/>
    <path class="st3" d="M342.5,249.7l-.4.9c2.8,1.1,5.6,2.4,8.3,3.7l.4-.9c-2.7-1.3-5.5-2.6-8.3-3.8Z"/>
  </g>
</svg>